{
	"asset":{
		"generator":"Khronos glTF Blender I/O v5.1.19",
		"version":"2.0"
	},
	"scene":0,
	"scenes":[
		{
			"name":"Scene",
			"nodes":[
				0,
				1,
				2
			]
		}
	],
	"nodes":[
		{
			"mesh":0,
			"name":"\u7acb\u65b9\u4f53"
		},
		{
			"mesh":1,
			"name":"\u7acb\u65b9\u4f53.001",
			"translation":[
				0,
				1.800086259841919,
				0
			]
		},
		{
			"mesh":2,
			"name":"\u30c6\u30ad\u30b9\u30c8",
			"rotation":[
				0.5946306586265564,
				-0.38614481687545776,
				0.5914361476898193,
				0.38407033681869507
			],
			"scale":[
				0.33798322081565857,
				0.3379831910133362,
				0.3379831612110138
			],
			"translation":[
				-0.8573005795478821,
				0.6284696459770203,
				-2.422147512435913
			]
		}
	],
	"materials":[
		{
			"doubleSided":true,
			"name":"\u30de\u30c6\u30ea\u30a2\u30eb",
			"pbrMetallicRoughness":{
				"baseColorFactor":[
					0,
					0,
					0,
					1
				],
				"metallicFactor":0,
				"roughnessFactor":0.5
			}
		},
		{
			"doubleSided":true,
			"name":"\u30de\u30c6\u30ea\u30a2\u30eb.001",
			"pbrMetallicRoughness":{
				"baseColorFactor":[
					0.7696948051452637,
					0.6813870072364807,
					0.8000074625015259,
					1
				],
				"metallicFactor":0,
				"roughnessFactor":0.5
			}
		}
	],
	"meshes":[
		{
			"name":"\u7acb\u65b9\u4f53",
			"primitives":[
				{
					"attributes":{
						"POSITION":0,
						"NORMAL":1,
						"TEXCOORD_0":2
					},
					"indices":3,
					"material":0
				}
			]
		},
		{
			"name":"\u7acb\u65b9\u4f53.001",
			"primitives":[
				{
					"attributes":{
						"POSITION":4,
						"NORMAL":5,
						"TEXCOORD_0":6
					},
					"indices":7,
					"material":1
				}
			]
		},
		{
			"name":"\u3042\u3042",
			"primitives":[
				{
					"attributes":{
						"POSITION":8,
						"NORMAL":9,
						"TEXCOORD_0":10
					},
					"indices":11,
					"material":1
				}
			]
		}
	],
	"accessors":[
		{
			"bufferView":0,
			"componentType":5126,
			"count":58,
			"max":[
				1,
				1,
				3.009436845779419
			],
			"min":[
				-1,
				0.32415664196014404,
				-4.009077548980713
			],
			"type":"VEC3"
		},
		{
			"bufferView":1,
			"componentType":5126,
			"count":58,
			"type":"VEC3"
		},
		{
			"bufferView":2,
			"componentType":5126,
			"count":58,
			"type":"VEC2"
		},
		{
			"bufferView":3,
			"componentType":5123,
			"count":96,
			"type":"SCALAR"
		},
		{
			"bufferView":4,
			"componentType":5126,
			"count":34,
			"max":[
				0.6256612539291382,
				0.10601268708705902,
				0.6256612539291382
			],
			"min":[
				-0.6256612539291382,
				-1.4612209796905518,
				-1.3202437162399292
			],
			"type":"VEC3"
		},
		{
			"bufferView":5,
			"componentType":5126,
			"count":34,
			"type":"VEC3"
		},
		{
			"bufferView":6,
			"componentType":5126,
			"count":34,
			"type":"VEC2"
		},
		{
			"bufferView":7,
			"componentType":5123,
			"count":60,
			"type":"SCALAR"
		},
		{
			"bufferView":8,
			"componentType":5126,
			"count":309,
			"max":[
				1.6410000324249268,
				0,
				0.23000000417232513
			],
			"min":[
				0.04000000283122063,
				0,
				-0.6910000443458557
			],
			"type":"VEC3"
		},
		{
			"bufferView":9,
			"componentType":5126,
			"count":309,
			"type":"VEC3"
		},
		{
			"bufferView":10,
			"componentType":5126,
			"count":309,
			"type":"VEC2"
		},
		{
			"bufferView":11,
			"componentType":5123,
			"count":903,
			"type":"SCALAR"
		}
	],
	"bufferViews":[
		{
			"buffer":0,
			"byteLength":696,
			"byteOffset":0,
			"target":34962
		},
		{
			"buffer":0,
			"byteLength":696,
			"byteOffset":696,
			"target":34962
		},
		{
			"buffer":0,
			"byteLength":464,
			"byteOffset":1392,
			"target":34962
		},
		{
			"buffer":0,
			"byteLength":192,
			"byteOffset":1856,
			"target":34963
		},
		{
			"buffer":0,
			"byteLength":408,
			"byteOffset":2048,
			"target":34962
		},
		{
			"buffer":0,
			"byteLength":408,
			"byteOffset":2456,
			"target":34962
		},
		{
			"buffer":0,
			"byteLength":272,
			"byteOffset":2864,
			"target":34962
		},
		{
			"buffer":0,
			"byteLength":120,
			"byteOffset":3136,
			"target":34963
		},
		{
			"buffer":0,
			"byteLength":3708,
			"byteOffset":3256,
			"target":34962
		},
		{
			"buffer":0,
			"byteLength":3708,
			"byteOffset":6964,
			"target":34962
		},
		{
			"buffer":0,
			"byteLength":2472,
			"byteOffset":10672,
			"target":34962
		},
		{
			"buffer":0,
			"byteLength":1806,
			"byteOffset":13144,
			"target":34963
		}
	],
	"buffers":[
		{
			"byteLength":14952,
			"uri":"Ship.bin"
		}
	]
}
